<svg xmlns="http://www.w3.org/2000/svg" width="128" height="128"><path fill-opacity=".25" d="M127 39.994l-.001-2.297c-.001-.858-.004-1.597-.008-2.292-.01-1.545-.027-2.727-.057-3.846-.092-3.449-.305-5.927-.722-8.255-.51-2.836-1.33-5.332-2.535-7.698a25.783 25.783 0 00-11.284-11.283C110.03 3.12 107.533 2.3 104.7 1.79c-2.32-.417-4.776-.629-8.257-.724-1.122-.03-2.304-.047-3.847-.057A748.527 748.527 0 0088.006 1H39.994l-2.295.001c-.86.001-1.598.004-2.291.008-1.547.01-2.73.027-3.848.057-3.484.095-5.94.307-8.258.724-2.834.51-5.33 1.33-7.694 2.533A25.798 25.798 0 004.325 15.607C3.12 17.972 2.3 20.467 1.79 23.304c-.417 2.328-.63 4.806-.722 8.255a177.91 177.91 0 00-.057 3.847A434.86 434.86 0 001 37.698v50.308l.001 2.296c.002.858.005 1.597.01 2.294.007 1.387.025 2.649.057 3.845.092 3.449.305 5.927.722 8.255.51 2.838 1.33 5.335 2.535 7.7a25.765 25.765 0 004.749 6.532 25.703 25.703 0 006.535 4.749c2.363 1.203 4.86 2.024 7.693 2.533 2.332.418 4.823.633 8.257.724 1.12.03 2.302.047 3.847.057.695.004 1.434.007 2.293.008l2.295.001h48.012c2.407 0 3.368-.002 4.589-.009 1.544-.01 2.726-.027 3.848-.057 3.433-.091 5.923-.306 8.257-.724 2.834-.51 5.33-1.33 7.694-2.533a25.742 25.742 0 006.536-4.75 25.762 25.762 0 004.747-6.532c1.205-2.364 2.025-4.861 2.535-7.699.417-2.328.63-4.806.722-8.255.03-1.119.047-2.301.057-3.845.004-.696.007-1.435.008-2.293l.001-2.297V39.994zm1 0v48.012l-.001 2.298c-.001.842-.004 1.586-.008 2.297a190.3 190.3 0 01-.057 3.867c-.09 3.375-.297 5.944-.738 8.405-.522 2.908-1.368 5.503-2.628 7.976a26.762 26.762 0 01-4.932 6.785 26.74 26.74 0 01-6.789 4.934c-2.472 1.259-5.065 2.104-7.97 2.626-2.467.442-5.046.65-8.407.74-1.162.03-2.365.047-3.869.057a757.9 757.9 0 01-4.595.009H39.994l-2.297-.001a544.46 544.46 0 01-2.296-.008c-1.506-.01-2.71-.026-3.869-.057-3.362-.09-5.943-.298-8.407-.74-2.904-.522-5.498-1.367-7.97-2.626a26.703 26.703 0 01-6.789-4.934 26.762 26.762 0 01-4.932-6.785c-1.26-2.473-2.106-5.068-2.628-7.976-.44-2.46-.648-5.03-.738-8.405a182.89 182.89 0 01-.057-3.867c-.005-.711-.008-1.455-.01-2.297L0 88.006V39.994l.001-2.298c.002-.842.005-1.586.01-2.297.007-1.373.025-2.646.057-3.867.09-3.375.297-5.944.738-8.405.522-2.907 1.368-5.5 2.628-7.974a26.784 26.784 0 0111.72-11.721c2.473-1.259 5.067-2.104 7.971-2.626 2.452-.441 5.003-.647 8.408-.74A198.23 198.23 0 0135.4.01c.71-.004 1.454-.007 2.296-.008L39.994 0h48.012c2.299 0 3.32.001 4.595.009 1.504.01 2.707.026 3.869.057 3.403.093 5.953.299 8.407.74 2.905.522 5.498 1.367 7.97 2.626a26.784 26.784 0 0111.72 11.72c1.262 2.475 2.107 5.068 2.63 7.975.44 2.46.647 5.03.737 8.405.03 1.159.047 2.363.057 3.867.004.711.007 1.455.008 2.297l.001 2.298z"/></svg>